<svg xmlns="http://www.w3.org/2000/svg" xmlns:xlink="http://www.w3.org/1999/xlink" viewBox="0 -2 24 28" version="1.1" x="0px" y="0px"><title>Ico/Navigation/Full screen</title><g stroke="none" stroke-width="1" fill="none" fill-rule="evenodd"><path d="M6,12 C6.55228475,12 7,12.4477153 7,13 L7,13 L7,17 L11,17 C11.5522847,17 12,17.4477153 12,18 C12,18.5522847 11.5522847,19 11,19 L11,19 L6,19 C5.86932274,18.99842 5.74022231,18.971241 5.62,18.92 C5.37565068,18.8185251 5.18147492,18.6243493 5.08,18.38 C5.02875903,18.2597777 5.00157999,18.1306773 5,18 L5,18 L5,13 C5,12.4477153 5.44771525,12 6,12 Z M18,5 C18.1306773,5.00157999 18.2597777,5.02875903 18.38,5.08 C18.6243493,5.18147492 18.8185251,5.37565068 18.92,5.62 C18.971241,5.74022231 18.99842,5.86932274 19,6 L19,6 L19,11 C19,11.5522847 18.5522847,12 18,12 C17.4477153,12 17,11.5522847 17,11 L17,11 L17,7 L13,7 C12.4477153,7 12,6.55228475 12,6 C12,5.44771525 12.4477153,5 13,5 L13,5 Z" fill="#000000"/></g></svg>